# xmcd CD database file
#
# Track frame offsets:
#	150
#	2929
#	18021
#	55498
#	61726
#	81382
#	92964
#	124794
#	132163
#	145570
#	151569
#	184956
#	196559
#
# Disc length: 3747 seconds
#
# Revision: 0
# Processed by: cddbd v1.5.2PL0 Copyright (c) Steve Scherf et al.
# Submitted via: CDex 1.51
#
DISCID=9f0ea10d
DTITLE=Gerard Badini Super Swing Machine - Scriabin's Groove
DYEAR=2006
DGENRE=Jazz
TTITLE0=Scriabin's Mood
TTITLE1=Guirlandes op.73 n°1
TTITLE2=Guirlandes
TTITLE3=Nuances op.56 n°3
TTITLE4=Nuances
TTITLE5=Prélude op.11 n°2
TTITLE6=Prélude
TTITLE7=Caresse Dansée op.57 n°2
TTITLE8=Caresse Dansée
TTITLE9=Feuillet d'Album op.45 n°1
TTITLE10=Feuillet d'Album
TTITLE11=Flammes Sombres op.73 n°2
TTITLE12=Flammes Sombres
EXTD=YEAR: 2006
EXTT0=
EXTT1=
EXTT2=
EXTT3=
EXTT4=
EXTT5=
EXTT6=
EXTT7=
EXTT8=
EXTT9=
EXTT10=
EXTT11=
EXTT12=
PLAYORDER=
